<?xml version="1.0" encoding="utf-8"?>
<!-- Generator: Adobe Illustrator 25.4.1, SVG Export Plug-In . SVG Version: 6.00 Build 0)  -->
<svg version="1.1" id="Capa_1" xmlns="http://www.w3.org/2000/svg" xmlns:xlink="http://www.w3.org/1999/xlink" x="0px" y="0px"
	 viewBox="0 0 120 120" style="enable-background:new 0 0 120 120;" xml:space="preserve">
<style type="text/css">
	.st0{fill:none;}
	.st1{filter:url(#uil-ring-shadow);}
	.st2{fill:#CA151A;}
</style>
<filter  height="300%" id="uil-ring-shadow" width="300%" x="-100%" y="-100%">
	<feOffset  dx="0" dy="0" in="SourceGraphic" result="offOut"></feOffset>
	<feGaussianBlur  in="offOut" result="blurOut" stdDeviation="0"></feGaussianBlur>
	<feBlend  in="SourceGraphic" in2="blurOut" mode="normal"></feBlend>
</filter>
<rect y="0" class="st0" width="120" height="120"/>
<g class="st1">
	<path class="st2" d="M12,60c0,0,0,0.6,0.1,1.7c0,0.6,0.1,1.2,0.2,2c0,0.4,0.1,0.8,0.1,1.3c0.1,0.5,0.1,1,0.2,1.4
		c0.2,1,0.4,2.2,0.6,3.4c0.4,1.2,0.7,2.5,1.1,3.8c0.4,1.3,1.1,2.8,1.7,4.2c0.6,1.4,1.4,2.9,2.2,4.4c0.4,0.7,1,1.4,1.4,2.3
		c0.5,0.7,1,1.6,1.6,2.3c1.2,1.4,2.3,3.1,3.7,4.4c2.6,3,6,5.6,9.5,8c3.6,2.4,7.8,4.1,12.1,5.5c4.3,1.3,9,1.8,13.4,1.9
		c4.8-0.1,9.2-0.7,13.6-1.9c4.3-1.4,8.4-3.1,12-5.5s7-5,9.5-8c1.4-1.4,2.5-3,3.7-4.4c0.6-0.7,1.1-1.6,1.6-2.3c0.5-0.7,1-1.6,1.4-2.3
		c0.7-1.6,1.6-3,2.2-4.4c0.6-1.4,1.2-2.9,1.7-4.2c0.4-1.3,0.7-2.6,1.1-3.8c0.2-1.2,0.5-2.3,0.6-3.4c0.1-0.5,0.1-1,0.2-1.4
		c0-0.5,0.1-0.8,0.1-1.3c0.1-0.8,0.1-1.4,0.2-2C108,60.6,108,60,108,60s0,0.6,0,1.7c0,0.6,0,1.2,0,2c0,0.4,0,0.8,0,1.3
		c0,0.5-0.1,1-0.1,1.4c-0.1,1.1-0.2,2.2-0.5,3.4c-0.2,1.2-0.6,2.5-0.8,4c-0.4,1.4-1,2.9-1.4,4.4c-0.2,0.8-0.6,1.6-1,2.3
		c-0.4,0.8-0.7,1.6-1.1,2.4c-0.4,0.8-0.8,1.6-1.3,2.4s-0.8,1.7-1.4,2.4c-1.2,1.6-2.3,3.2-3.7,4.8c-2.6,3.2-6,6-9.7,8.5
		c-1,0.6-1.9,1.2-2.9,1.8c-1,0.6-2,1.1-3.1,1.6l-1.7,0.8l-1.7,0.6c-1.1,0.4-2.2,0.8-3.4,1.2c-4.6,1.3-9.5,2-14.2,2.2l-3.6-0.2
		c-1.2,0-2.4-0.2-3.6-0.4l-1.8-0.2l-0.8-0.1l-0.8-0.2c-1.2-0.4-2.3-0.6-3.5-0.8c-1.1-0.4-2.3-0.8-3.4-1.2l-1.7-0.7l-1.6-0.7
		c-1.1-0.5-2.2-1-3.1-1.6c-1-0.6-1.9-1.2-2.9-1.8c-3.7-2.5-7.1-5.4-9.7-8.5c-1.4-1.4-2.5-3.2-3.7-4.8c-0.6-0.7-1-1.7-1.4-2.4
		c-0.5-0.8-1-1.6-1.3-2.4s-0.7-1.6-1.1-2.4c-0.4-0.8-0.7-1.6-1-2.3c-0.5-1.6-1.1-3-1.4-4.4c-0.4-1.4-0.6-2.8-0.8-4
		c-0.2-1.2-0.4-2.4-0.5-3.4c-0.1-0.5-0.1-1-0.1-1.4s0-0.8,0-1.3c0-0.8,0-1.4,0-2C12,60.6,12,60,12,60z"/>
	
		<animateTransform  accumulate="none" additive="replace" attributeName="transform" calcMode="linear" dur="1s" fill="remove" from="0 50 50" repeatCount="indefinite" restart="always" to="360 50 50" type="rotate">
		</animateTransform>
</g>
</svg>
