<svg id="Capa_1" data-name="Capa 1" xmlns="http://www.w3.org/2000/svg" xmlns:xlink="http://www.w3.org/1999/xlink" viewBox="0 0 514.43 235.05"><defs><style>.cls-1{fill:#000201;}.cls-2{fill:#6d6d6d;}.cls-10,.cls-11,.cls-12,.cls-2,.cls-7,.cls-8,.cls-9{stroke:#000;stroke-width:2px;}.cls-10,.cls-11,.cls-12,.cls-13,.cls-2,.cls-7,.cls-8,.cls-9{stroke-miterlimit:10;}.cls-3{fill:#de2027;}.cls-4{fill:#9b1b22;}.cls-13,.cls-5{fill:#fff;}.cls-6{fill:#6c6c6c;}.cls-7{fill:url(#Degradado_sin_nombre_17);}.cls-8{fill:url(#Degradado_sin_nombre_17-2);}.cls-9{fill:url(#Degradado_sin_nombre_17-3);}.cls-10{fill:url(#Degradado_sin_nombre_17-4);}.cls-11{fill:url(#Degradado_sin_nombre_17-5);}.cls-12{fill:url(#Degradado_sin_nombre_17-6);}.cls-13{font-size:19.18px;stroke:#fff;stroke-width:0.5px;font-family:MyriadPro-Regular, Myriad Pro;}.cls-14{letter-spacing:0.01em;}.cls-15{letter-spacing:-0.04em;}.cls-16{letter-spacing:-0.01em;}.cls-17{letter-spacing:0em;}.cls-18{letter-spacing:-0.04em;}.cls-19{letter-spacing:0em;}.cls-20{letter-spacing:0em;}</style><linearGradient id="Degradado_sin_nombre_17" x1="117.61" y1="80.62" x2="117.61" y2="168.3" gradientUnits="userSpaceOnUse"><stop offset="0" stop-color="#fff"/><stop offset="1" stop-color="#85878a"/></linearGradient><linearGradient id="Degradado_sin_nombre_17-2" x1="193.82" y1="82.41" x2="193.82" y2="166.59" xlink:href="#Degradado_sin_nombre_17"/><linearGradient id="Degradado_sin_nombre_17-3" x1="256.92" y1="106.77" x2="256.92" y2="194.15" xlink:href="#Degradado_sin_nombre_17"/><linearGradient id="Degradado_sin_nombre_17-4" x1="323.85" y1="105.43" x2="323.85" y2="168.06" xlink:href="#Degradado_sin_nombre_17"/><linearGradient id="Degradado_sin_nombre_17-5" x1="393.99" y1="104.14" x2="393.99" y2="168.96" xlink:href="#Degradado_sin_nombre_17"/><linearGradient id="Degradado_sin_nombre_17-6" x1="455.55" y1="92.92" x2="455.55" y2="170.12" xlink:href="#Degradado_sin_nombre_17"/></defs><title>Logo</title><rect class="cls-1" x="166.12" y="81.07" width="331.81" height="126.72"/><circle class="cls-2" cx="112.75" cy="125.83" r="98.28"/><circle class="cls-1" cx="112.75" cy="126.51" r="85.43"/><circle class="cls-3" cx="112.75" cy="126.17" r="74"/><circle class="cls-4" cx="112.75" cy="125.83" r="66.98"/><path class="cls-5" d="M112.67,41.08a84.62,84.62,0,0,1,32.88,6,86.13,86.13,0,0,1,28.07,18.44,85.07,85.07,0,0,1,18.82,27.9,85.39,85.39,0,0,1,0,66.09,85.1,85.1,0,0,1-18.82,27.91,86.17,86.17,0,0,1-28.07,18.44,84.62,84.62,0,0,1-32.88,6,85.88,85.88,0,0,0,78.09-53.08,85.75,85.75,0,0,0,0-64.69,85.87,85.87,0,0,0-78.09-53.08Z"/><path class="cls-5" d="M113.19,222a95.42,95.42,0,0,1-37-6.86,97,97,0,0,1-31.57-20.78A95.89,95.89,0,0,1,23.45,163a96.19,96.19,0,0,1,0-74.34A95.91,95.91,0,0,1,44.61,57.25,97,97,0,0,1,76.18,36.47a95.42,95.42,0,0,1,37-6.86A96.68,96.68,0,0,0,25.13,89.35a96.56,96.56,0,0,0,0,73A96.67,96.67,0,0,0,113.19,222Z"/><path d="M113.19,192.81a66.16,66.16,0,0,1-25.82-4.64,67.64,67.64,0,0,1-22.08-14.44,66.58,66.58,0,0,1-14.82-21.92,66.92,66.92,0,0,1,0-52A66.61,66.61,0,0,1,65.28,77.92,67.68,67.68,0,0,1,87.37,63.49a66.16,66.16,0,0,1,25.82-4.64,67.43,67.43,0,0,0-61.05,41.7,67.29,67.29,0,0,0,0,50.57,67.42,67.42,0,0,0,61.05,41.69Z"/><path d="M189.2,76v-5.6H153.91L154,80.92l-.12-.11c-2.11-4.21-6.43-9.09-15.22-9.84C122.79,69.62,81,71,81,71S70.63,73.75,70,87.57s-.32,36.08-.32,36.08l-.06,19.63v18.86S70.3,178.39,83.78,179c11.78.51,27.13.32,54.43-.22,0,0,9.47,0,15.46-7.3l.49,5.39,1,1.31h33.08l0-2.26V164.1l9.19,13.16,3.14,1.61,25.13.16.06,2.67v22.89s.59,2.36,1.6,2.49c5.43.68,27.69,2.22,33.07-3.49,0,0,4.79-3.39,8.25-12.15l14-41-.35,27.77,7.07.2h28.8l.2-2.54V140.56s-2.05-9.54,4.36-9.54c5.32,0,4.17.49,4.17.49s3.23.63,2.7,8.82c-.22,3.4,0,32.35-.25,37.74-.06,1.26,7.12.65,7.12.65h27.67l1.9-2.26v-6.09s2.89,6.09,11.14,7.79,34.59,3.67,42.57-.57,12.83-9.33,14.13-14.41,2.1-10.25,2.1-10.25.27,25,19.69,26.36,27.67-1.7,27.67-1.7a12.34,12.34,0,0,0,6.39-9.89c.8-7.35,0-32.22,0-32.22H467.4v-5.65h22.7V98.16H467.67V86L467,83.75H436.56L436.8,86V96.46l-1.86.28h-8.28l0,2v4.06a30.28,30.28,0,0,0-14.9-5.48c-8.51-.57-30.06-3.11-39.91,3.39s-10.11,10.46-10.11,10.46-9.31-13-20.22-13.57-26.39-.4-26.39-.4L292,98.59l-4.42-.44-18.7-.55-3.28-.16-.47,1.72-8.09,22.06-7.9-22-.78-2.18-1.61-.36H198.91l-1.87,0-7.86,10.1V73.85"/><path class="cls-6" d="M484.55,129.12V99.86h-22V88.63l-8.88,6.53,5.75-8.62H434.31l6.27,8.36-8.36-6.27v9.66L439.53,110l-9.14-11.49H423.6L430.91,109l-8.62-8.62v3.76a30.77,30.77,0,0,0-14.63-5.06c-8.36-.52-29.52-2.87-39.18,3.13s-9.93,9.66-9.93,9.66-9.14-12-19.85-12.54-21.49-.05-30.11,7.43l6.6-6.39H291.43l3.13,7.67-6.51-8-20.66-.73,4.44,7.43-6.27-5.08-8.64,26.9-9.38-26.12-7.31,7.31,5-9.66h-47l2.09,8.1-3.66-7.05-9.86,11-6.08,17.24-3.4-4.92,9.47-13.89V77.4l-9.21,9.14,7.57-12.36H157.69l6.53,9.49L156,76.87v7.05l-1.51-.1c-2.07-3.89-6.31-8.4-14.94-9.09-15.61-1.25-56.62,0-56.62,0S72.72,77.3,72.09,90.07s-.31,33.34-.31,33.34l-.06,18.15V159s.67,15,13.9,15.56c11.56.47,26.64.3,53.44-.21,0,0,11-.83,16.9-7.6v5l6-5.11-5,7.2h28.47l-5.46-8.36,6.84,6.27V157.33L197.18,173l7.52-8.58-4.44,10.07h30.82l7.57,6.12-9.14-3.66v21.16l8.62-5.75s-8,7.93-7,8c5.33.63,22.66,2.2,27.94-3.08,0,0,4.7-3.13,8.1-11.23l17.62-48.43V173l9-6.41L287.51,174h26.38l-5.22-7.46,7.31,5.11V139s-1.07-10.45,5.22-10.45h5.22s5.75-.78,5.22,6.79c-.22,3.15-.06,29.81,0,37.09,0,1.16,9.15-5.89,9.15-5.89l-7.05,7.72h27.16l-8.1-7.72,10,5.63v-5.63s2.84,5.63,10.93,7.2,34,3.4,41.79-.52,12.59-8.62,13.87-13.32,2.06-9.48,2.06-9.48.26,23.06,19.33,24.36,27.17-1.57,27.17-1.57a11.5,11.5,0,0,0,6.27-9.14c.78-6.79,0-29.78,0-29.78H465.91l4.7,9.4-8.36-9.4v-5.22ZM208.1,134.6l11.75-14.11,17.76,49.62Z"/><path class="cls-7" d="M153,109.72V94.16s-1.09-12-14.69-13.06S89,81.1,89,81.1s-8.89,2.24-9.44,13.36-.27,29-.27,29,.88,9,14.76,9.29c20.8.49,38.26,1.3,38.26,1.3-.13-.54,4.79-.52,4.93,5.21.09,3.85.86,10-7.62,9.79-7-.15-27.75,0-27.75,0s-6-.06-6.14-3.46l-.46-6.33h-16V154.5s.58,13.08,12.11,13.55c10.07.41,23.21.26,46.56-.18,0,0,17.08-1.29,17.83-14.41.56-9.77,0-22.58,0-22.58s-.57-15.15-14.72-16.24-40.26-1.44-40.26-1.44-5.49.53-5.33-6.51c.12-5.1.81-7.3,9.68-7.63,7.61-.29,20.64.5,20.64.5s6.61-.6,7.15,2.67a48,48,0,0,1,.5,7.17Z"/><polygon class="cls-8" points="161.95 166.59 161.95 82.41 180.16 82.41 180.16 126.51 183.6 126.51 199.35 106.77 221.74 106.77 199.6 134.82 225.68 166.59 202.21 166.59 184.97 142.37 179.91 142.37 179.91 166.59 161.95 166.59"/><path class="cls-9" d="M224.2,106.77h17.47l13.53,42.56,15-42.56h19.44l-27.06,77s-3.2,11.07-10.83,10.33h-15.5V178.37h6.89s5.41.79,7.87-11.78h-6.89Z"/><path class="cls-10" d="M292.6,106.77h16v9.1s4.18-10.09,12.79-10.33,17.22,0,17.22,0,14.27,2.46,16.48,15v47.51H338.86V130.15s0-8.12-7.14-7.63c-5.89.41-13,.25-13,.25a9.78,9.78,0,0,0-8.61,9.1c-.74,8.37,0,36.19,0,36.19H292.6Z"/><path class="cls-11" d="M425.21,141.22v-17s0-16.94-14.27-18.8-30.75-1.59-36.17,0c0,0-10.09,3.55-11.07,11.92s-1.48,30.51,0,37.4,7.14,11.61,16,13.31,33.54,1.41,38.87-4.45c4.92-5.41,5.17-9.35,6.64-15.25H407.75s-1.15,5.81-9,5.78L389,154s-9.35.49-9.35-6.15v-6.64Zm-45.52-17c2.21-5.41,9.86-6,9.86-6h11.08c5.41,0,7.11,6.23,7.11,6.23v4.66h-28Z"/><path class="cls-12" d="M438.21,122.38h-8.84V107.2h8.84V92.92h17.45V107h26.07v15.41H455.67v24.48s.23,6.35,6.35,6.35,7-4.08,7-5.67v-5.89h12.69v15s0,10.65-7.71,12.35c-6.53,1.44-21.08,1.94-26.84-.91-5.41-2.67-8.07-8.72-8.75-14.62S438.21,122.38,438.21,122.38Z"/><text class="cls-13" transform="translate(275.4 200.06) scale(1.21 1)">D<tspan class="cls-14" x="12.78" y="0">E</tspan><tspan x="22.39" y="0">VE</tspan><tspan class="cls-15" x="42.53" y="0">L</tspan><tspan x="50.84" y="0">O</tspan><tspan class="cls-16" x="64.05" y="0">P</tspan><tspan class="cls-17" x="74.03" y="0">MENT </tspan><tspan class="cls-18" x="125.12" y="0"> </tspan><tspan class="cls-19" x="128.4" y="0">TE</tspan><tspan class="cls-20" x="147.37" y="0">A</tspan><tspan x="159.03" y="0">M</tspan></text></svg>